HIERARCHY
ROOT bip01_pelvis
{
	OFFSET -0.141780 111.560104 -53.453648
	CHANNELS 6 Xposition Yposition Zposition Xrotation Yrotation Zrotation
	JOINT bip01_l_thigh
	{
		OFFSET -12.581326 0.000023 0.838757
		CHANNELS 3 Xrotation Yrotation Zrotation
		JOINT bip01_l_calf
		{
			OFFSET -5.405050 -43.060066 12.568863
			CHANNELS 3 Xrotation Yrotation Zrotation
			JOINT bip01_l_foot
			{
				OFFSET -6.378141 -25.639313 -28.000755
				CHANNELS 3 Xrotation Yrotation Zrotation
				JOINT bip01_l_toe0
				{
					OFFSET -1.312191 -43.345943 -5.410645
					CHANNELS 3 Xrotation Yrotation Zrotation
					End Site
					{
						OFFSET 0.668312 -0.011212 0.027710
					}
				}
			}
		}
	}
	JOINT bip01_r_thigh
	{
		OFFSET 12.581315 -0.000053 -0.838764
		CHANNELS 3 Xrotation Yrotation Zrotation
		JOINT bip01_r_calf
		{
			OFFSET 7.025425 -43.060097 11.740181
			CHANNELS 3 Xrotation Yrotation Zrotation
			JOINT bip01_r_foot
			{
				OFFSET 2.604660 -25.639347 -28.599602
				CHANNELS 3 Xrotation Yrotation Zrotation
				JOINT bip01_r_toe0
				{
					OFFSET 0.582125 -43.345810 -5.536972
					CHANNELS 3 Xrotation Yrotation Zrotation
					End Site
					{
						OFFSET 0.658720 0.011207 -0.116180
					}
				}
			}
		}
	}
	JOINT bip01_spine
	{
		OFFSET 1.130847 -10.257637 16.963192
		CHANNELS 3 Xrotation Yrotation Zrotation
		JOINT bip01_spine1
		{
			OFFSET 2.125925 -0.408882 31.891911
			CHANNELS 3 Xrotation Yrotation Zrotation
			JOINT bip01_spine2
			{
				OFFSET 3.104555 -1.436646 46.949230
				CHANNELS 3 Xrotation Yrotation Zrotation
				JOINT bip01_neck
				{
					OFFSET 1.831697 12.621635 29.209831
					CHANNELS 3 Xrotation Yrotation Zrotation
					JOINT bip01_head
					{
						OFFSET 0.933028 14.642593 15.308128
						CHANNELS 3 Xrotation Yrotation Zrotation
						JOINT bip01_ponytail1
						{
							OFFSET 12.881245 30.917107 3.869919
							CHANNELS 3 Xrotation Yrotation Zrotation
							End Site
							{
								OFFSET -0.556711 0.315430 0.195229
							}
						}
						JOINT bip01_ponytail2
						{
							OFFSET -12.308470 31.163292 5.588448
							CHANNELS 3 Xrotation Yrotation Zrotation
							End Site
							{
								OFFSET -0.577699 -0.315430 -0.119598
							}
						}
						JOINT bone01
						{
							OFFSET -0.035753 10.693596 0.910164
							CHANNELS 3 Xrotation Yrotation Zrotation
							End Site
							{
								OFFSET -0.667642 0.000000 0.042305
							}
						}
						JOINT bone03
						{
							OFFSET -2.859410 10.011330 9.974838
							CHANNELS 3 Xrotation Yrotation Zrotation
							End Site
							{
								OFFSET 0.042301 0.000000 0.667641
							}
						}
						JOINT bone05
						{
							OFFSET 4.144515 10.011345 9.531006
							CHANNELS 3 Xrotation Yrotation Zrotation
							End Site
							{
								OFFSET 0.042301 0.000000 0.667641
							}
						}
					}
					JOINT bip01_l_clavicle
					{
						OFFSET -6.817371 -1.737137 -4.124603
						CHANNELS 3 Xrotation Yrotation Zrotation
						JOINT bip01_l_upperarm
						{
							OFFSET -13.915021 0.119522 7.203735
							CHANNELS 3 Xrotation Yrotation Zrotation
							JOINT bip01_l_forearm
							{
								OFFSET 0.900768 -49.360191 -24.691143
								CHANNELS 3 Xrotation Yrotation Zrotation
								JOINT bip01_l_hand
								{
									OFFSET 5.453267 -54.192162 0.261513
									CHANNELS 3 Xrotation Yrotation Zrotation
									End Site
									{
										OFFSET -0.048247 0.019447 -0.666954
									}
								}
							}
						}
					}
					JOINT bip01_r_clavicle
					{
						OFFSET 6.291911 -1.668388 -4.989365
						CHANNELS 3 Xrotation Yrotation Zrotation
						JOINT bip01_r_upperarm
						{
							OFFSET 14.738678 0.269737 5.313599
							CHANNELS 3 Xrotation Yrotation Zrotation
							JOINT bip01_r_forearm
							{
								OFFSET -4.170362 -49.360199 -24.353104
								CHANNELS 3 Xrotation Yrotation Zrotation
								JOINT bip01_r_hand
								{
									OFFSET -5.370342 -54.192158 0.983074
									CHANNELS 3 Xrotation Yrotation Zrotation
									End Site
									{
										OFFSET 0.040714 -0.019448 0.667458
									}
								}
							}
						}
					}
				}
			}
		}
	}
	JOINT bip01_tail
	{
		OFFSET -1.140240 5.694984 -17.420544
		CHANNELS 3 Xrotation Yrotation Zrotation
		JOINT bip01_tail1
		{
			OFFSET -0.799711 -16.655739 -11.995483
			CHANNELS 3 Xrotation Yrotation Zrotation
			JOINT bip01_tail2
			{
				OFFSET -0.560408 -49.655807 -8.404999
				CHANNELS 3 Xrotation Yrotation Zrotation
				End Site
				{
					OFFSET -0.667499 0.000004 0.044495
				}
			}
		}
	}
}
MOTION
Frames: 6
Frame Time: 0.041667
-2.137363 92.561325 -14.257763 -6.556409 -6.075615 -4.432069 -5.972533 -6.088262 1.983925 23.673738 -3.920996 -1.320405 -58.920600 18.850187 12.522332 47.294904 -13.573427 9.015448 16.469232 11.655623 8.744818 15.425168 2.207490 -0.986720 -7.458006 23.572226 4.454821 -14.543409 1.568130 -19.964904 8.421610 -0.500701 0.908045 -15.173195 0.162758 0.895192 -16.408216 -2.370729 -4.119441 -6.578860 8.589571 8.641427 5.330671 -5.083956 -1.754783 -14.773132 37.687269 -1.223702 -16.461161 -43.569083 5.279632 12.249678 -0.204331 -0.963367 0.004078 0.003789 -0.004769 -0.002725 0.000244 0.003163 7.248630 -17.438074 1.771902 -49.580388 5.190558 -0.317729 -27.153934 -3.654514 3.649049 80.011957 20.540320 64.122390 21.667085 36.692528 -24.167444 82.271971 -37.276017 61.435161 -25.587383 2.600125 -0.152603 45.041379 14.962453 -0.149079 67.813499 9.448385 12.582686 9.326368 0.409243 -2.138176 -54.324576 -5.593279 -9.283630 
-2.137332 95.607933 -5.793213 -0.235021 -6.328927 -5.215390 -5.644958 -5.884136 3.607311 18.363910 -2.999170 -1.167128 -54.342829 17.941329 10.876735 41.953027 -13.456020 7.866171 22.032146 14.536690 6.621666 -0.848744 -0.128664 0.036397 -4.697300 24.995776 4.791615 -13.429219 1.393624 -19.554710 10.397859 0.271916 1.832312 -17.341119 2.062003 2.754206 -16.831622 2.666801 -3.393512 -5.224045 10.926633 7.530244 -1.724355 -13.202004 -5.974964 -10.061873 25.645320 -6.419945 -9.237298 -28.976757 11.172169 15.050768 -0.248396 -1.146529 0.004076 0.003788 -0.004770 -0.002726 0.000245 0.003158 5.917246 -18.599959 3.111266 -22.839599 9.650876 -8.142344 -35.572684 -5.095172 4.390537 83.271569 32.983772 71.642715 21.169804 39.571374 -24.550563 91.658086 -34.745644 72.214620 -28.866435 2.930051 -0.087972 20.925678 13.653074 11.375094 78.913157 6.186291 14.547808 -1.679668 1.491227 -1.661729 -53.685553 -2.437299 -9.548524 
-2.137299 97.512085 -9.527565 2.039289 -5.244199 -5.144247 -9.382232 -5.740415 5.314532 15.792690 -2.558701 -1.062362 -49.064941 17.944526 7.187450 41.731759 -13.264873 8.453191 16.986426 14.088933 7.753880 -0.860744 -0.130485 0.036900 -3.458276 23.938006 4.985522 -12.280900 1.222905 -19.182750 10.925752 -0.067118 2.390129 -16.719801 2.225625 2.832977 -14.670294 4.427231 -3.074786 -2.677431 13.260511 5.644183 -11.963740 -17.277728 -8.425226 -7.257933 15.068152 -9.615435 -4.595747 -15.122437 14.381078 17.363287 -0.289556 -1.294439 0.004074 0.003789 -0.004769 -0.002727 0.000245 0.003161 3.626804 -19.667709 4.867984 1.124193 13.404065 -11.514113 -43.999495 -6.629475 4.913916 84.829269 45.699628 79.647649 18.934910 42.550661 -24.243953 91.062814 -37.645455 79.260343 -26.932715 2.735951 -0.128373 0.622726 8.187102 14.738910 84.631774 3.788999 16.366489 0.297355 2.085162 -2.131125 -50.889851 0.084189 -9.673973 
-2.137169 99.606636 -12.266094 3.121787 -3.501987 -4.956919 -11.882098 -5.564153 6.391563 13.387096 -2.151241 -0.946559 -43.881384 17.286305 3.266878 41.338736 -13.157867 9.010320 12.984612 13.786651 8.710429 -0.864417 -0.131045 0.037053 -2.022197 21.990226 4.946983 -11.105564 1.056029 -18.839460 10.225403 -1.096075 2.599052 -13.849877 0.950717 1.465242 -10.614936 3.378520 -3.104607 0.132113 15.267447 3.438538 -23.123102 -18.464520 -8.490073 -5.754504 7.501978 -11.334837 -1.490899 -3.530092 16.092071 18.929509 -0.322510 -1.394134 0.004079 0.003789 -0.004770 -0.002724 0.000245 0.003160 1.225763 -20.544968 6.699917 23.282103 20.297891 -15.607843 -52.439382 -8.223049 5.206281 83.531902 58.448879 89.675295 12.450939 37.144348 -19.529667 83.061903 -41.481798 73.148007 -31.570367 3.198870 -0.020539 2.279248 7.057482 15.123765 82.907923 2.483202 16.798174 7.106214 2.391033 -2.492519 -47.700795 0.953279 -8.869562 
-2.137041 101.701172 -15.253590 3.158140 -1.195880 -4.448083 -13.285205 -5.374471 6.821060 11.081879 -1.765704 -0.819666 -38.897787 16.006965 -0.603441 40.856972 -13.128410 9.506174 9.932604 13.629098 9.423208 -0.929499 -0.140919 0.039791 -0.428559 19.281450 4.782826 -9.902132 0.899139 -18.527235 9.323948 -2.362935 2.760048 -10.594495 -0.663391 -0.077741 -6.113563 1.877193 -3.062566 2.190809 16.742081 1.477455 -31.938945 -19.362051 -7.860416 -5.295719 4.422314 -11.728855 0.423818 4.400612 16.893546 19.507486 -0.335980 -1.429005 0.004075 0.003789 -0.004770 -0.002727 0.000245 0.003160 1.612142 -21.062973 16.602667 35.790970 6.541162 -23.722193 -60.534532 -9.770510 5.262183 87.408069 39.591676 55.275918 7.789142 31.835799 -15.837416 71.863630 -44.988240 63.966368 -33.435815 3.382280 0.033351 2.751525 5.692450 15.146744 76.789829 1.492395 16.252380 14.398203 2.700993 -1.867825 -43.680371 -1.284421 -5.530447 
-2.136781 103.414886 -18.241089 2.271617 1.564877 -3.627391 -13.599069 -5.186762 6.676793 8.726203 -1.377396 -0.674132 -34.297634 14.195640 -4.245534 40.446393 -13.144784 9.964631 7.725110 13.656707 9.856369 -1.082643 -0.164173 0.046174 1.274533 15.934746 4.577776 -8.676325 0.747756 -18.233849 8.248722 -3.835387 2.865077 -7.033951 -2.609140 -1.730562 -1.233131 -0.001614 -2.882062 2.419527 17.557242 0.400952 -36.987704 -19.207383 -6.104129 -5.625415 5.402072 -11.040548 1.104965 7.336325 17.124853 19.068594 -0.325703 -1.402575 0.004081 0.003788 -0.004770 -0.002723 0.000245 0.003160 3.716719 -20.611400 26.047647 41.281226 -7.961009 -28.585119 -57.963758 -9.279140 5.268431 63.679568 24.656322 37.587726 5.734723 26.894165 -13.143721 57.517187 -46.951718 51.837608 -33.206102 3.359795 0.026393 2.323352 4.175520 14.757744 68.669602 0.583200 15.400434 22.309426 3.104572 -0.961831 -37.566515 -5.330353 -0.415752 
